<svg width="31" height="32" viewBox="0 0 31 32" fill="none" xmlns="http://www.w3.org/2000/svg">
<path d="M11.6667 29.7917C13.0014 29.7917 14.0833 28.7097 14.0833 27.375C14.0833 26.0403 13.0014 24.9583 11.6667 24.9583C10.332 24.9583 9.25 26.0403 9.25 27.375C9.25 28.7097 10.332 29.7917 11.6667 29.7917Z" stroke="#3F3F3F" stroke-width="2.8" stroke-linecap="round" stroke-linejoin="round"/>
<path d="M26.1667 29.7917C27.5014 29.7917 28.5833 28.7097 28.5833 27.375C28.5833 26.0403 27.5014 24.9583 26.1667 24.9583C24.832 24.9583 23.75 26.0403 23.75 27.375C23.75 28.7097 24.832 29.7917 26.1667 29.7917Z" stroke="#3F3F3F" stroke-width="2.8" stroke-linecap="round" stroke-linejoin="round"/>
<path d="M7.64292 8.04167H28.5833L26.5533 18.1796C26.4428 18.7359 26.1402 19.2356 25.6984 19.5913C25.2566 19.9469 24.7037 20.1359 24.1367 20.125H11.3646C10.7745 20.13 10.203 19.919 9.75787 19.5317C9.3127 19.1444 9.0246 18.6076 8.94792 18.0225L7.11125 4.1025C7.03508 3.52158 6.75047 2.98811 6.31037 2.60135C5.87026 2.21459 5.30464 2.00089 4.71875 2H2" stroke="#3F3F3F" stroke-width="2.8" stroke-linecap="round" stroke-linejoin="round"/>
</svg>
